Coordinates
version=1
nRows=54
nColumns=12
inDegrees=yes

Units are S.I. units (second, meters, Newtons, ...)
Angles are in degrees

endheader
time	SC_y	SC_z	SC_x	AC_y	AC_z	AC_x	GH_y	GH_z	GH_yy	EL_x	PS_y
       0.0              -43.21          16.93          81.38          63.48          9.046         -8.852         -72.89          76.79         -97.02           75.4          132.7
   0.03299              -43.21          16.93          81.37          63.48          9.043         -8.853          -72.9          76.79         -97.02           75.4          132.7
   0.06599              -43.21          16.93          81.37          63.48           9.04         -8.854          -72.9          76.79         -97.03           75.4          132.7
   0.09898              -43.21          16.94          81.37          63.48          9.036         -8.855          -72.9           76.8         -97.03           75.4          132.7
     0.132              -43.21          16.94          81.36          63.48          9.033         -8.857          -72.9           76.8         -97.04           75.4          132.6
     0.165              -43.21          16.94          81.36          63.48          9.028         -8.858          -72.9           76.8         -97.04          75.41          132.6
     0.198              -43.21          16.95          81.35          63.48          9.024          -8.86          -72.9           76.8         -97.05          75.41          132.6
     0.231              -43.21          16.95          81.35          63.48           9.02         -8.862         -72.91           76.8         -97.06          75.41          132.6
     0.264              -43.21          16.95          81.34          63.49          9.015         -8.864         -72.91          76.81         -97.06          75.41          132.6
     0.297              -43.21          16.96          81.34          63.49          9.009         -8.866         -72.91          76.81         -97.07          75.41          132.6
    0.3299              -43.21          16.96          81.33          63.49          9.004         -8.868         -72.92          76.81         -97.08          75.41          132.5
    0.3629              -43.21          16.96          81.33          63.49          8.997          -8.87         -72.92          76.82         -97.09          75.41          132.5
    0.3959              -43.21          16.97          81.32          63.49          8.991         -8.873         -72.92          76.82         -97.09          75.41          132.5
    0.4289              -43.21          16.97          81.31          63.49          8.984         -8.876         -72.93          76.82          -97.1          75.41          132.5
    0.4619               -43.2          16.98           81.3          63.49          8.976         -8.879         -72.93          76.83         -97.11          75.42          132.4
    0.4949               -43.2          16.98           81.3           63.5          8.967         -8.882         -72.93          76.83         -97.13          75.42          132.4
    0.5279               -43.2          16.99          81.29           63.5          8.958         -8.886         -72.94          76.83         -97.14          75.42          132.4
    0.5609               -43.2           17.0          81.28           63.5          8.948         -8.889         -72.94          76.84         -97.15          75.42          132.3
    0.5939               -43.2           17.0          81.27           63.5          8.937         -8.894         -72.95          76.85         -97.17          75.42          132.3
    0.6269               -43.2          17.01          81.25          63.51          8.926         -8.898         -72.96          76.85         -97.18          75.43          132.2
    0.6599               -43.2          17.02          81.24          63.51          8.912         -8.903         -72.96          76.86          -97.2          75.43          132.2
    0.6929               -43.2          17.03          81.23          63.51          8.898         -8.909         -72.97          76.87         -97.22          75.43          132.1
    0.7259              -43.19          17.04          81.21          63.52          8.882         -8.915         -72.98          76.87         -97.24          75.44          132.1
    0.7589              -43.19          17.05          81.19          63.52          8.865         -8.922         -72.99          76.88         -97.27          75.44          132.0
    0.7919              -43.19          17.07          81.17          63.53          8.845         -8.929          -73.0          76.89         -97.29          75.44          131.9
    0.8249              -43.19          17.08          81.15          63.53          8.823         -8.938         -73.01           76.9         -97.32          75.45          131.9
    0.8579              -43.18           17.1          81.12          63.54          8.799         -8.947         -73.02          76.92         -97.36          75.46          131.8
    0.8909              -43.18          17.12           81.1          63.54          8.771         -8.958         -73.04          76.93         -97.39          75.46          131.7
    0.9239              -43.18          17.14          81.07          63.55           8.74          -8.97         -73.05          76.95         -97.44          75.47          131.6
    0.9568              -43.17          17.16          81.03          63.56          8.705         -8.983         -73.07          76.96         -97.48          75.48          131.4
    0.9898              -43.17          17.19          80.99          63.57          8.665         -8.999         -73.09          76.98         -97.54          75.48          131.3
     1.023              -43.16          17.22          80.94          63.58          8.618         -9.017         -73.11          77.01          -97.6          75.49          131.1
     1.056              -43.16          17.26          80.89           63.6          8.565         -9.037         -73.14          77.03         -97.67          75.51          130.9
     1.089              -43.15           17.3          80.82          63.61          8.503         -9.061         -73.17          77.07         -97.76          75.52          130.7
     1.122              -43.14          17.35          80.75          63.63           8.43         -9.089         -73.21           77.1         -97.86          75.54          130.4
     1.155              -43.13          17.41          80.66          63.65          8.345         -9.122         -73.25          77.15         -97.97          75.55          130.1
     1.188              -43.12          17.48          80.56          63.67          8.243         -9.161         -73.31           77.2         -98.11          75.58          129.7
     1.221              -43.11          17.56          80.44           63.7          8.121         -9.208         -73.37          77.26         -98.28           75.6          129.3
     1.254              -43.09          17.66          80.29          63.74          7.974         -9.265         -73.45          77.33         -98.48          75.63          128.7
     1.287              -43.07          17.79          80.11          63.78          7.794         -9.335         -73.54          77.42         -98.72          75.67          128.0
      1.32              -43.05          17.94          79.88          63.84          7.571          -9.42         -73.65          77.54         -99.02          75.72          127.2
     1.353              -43.02          18.13           79.6          63.91          7.294         -9.527          -73.8          77.68          -99.4          75.78          126.2
     1.386              -42.98          18.37          79.25          63.99          6.945         -9.662         -73.98          77.85         -99.88          75.86          124.9
     1.419              -42.93          18.67           78.8           64.1          6.501         -9.833          -74.2          78.08         -100.5          75.95          123.2
     1.452              -42.86          19.06          78.22          64.24          5.933         -10.05          -74.5          78.37         -101.3          76.08          121.1
     1.485              -42.78          19.56          77.48          64.42          5.203         -10.33         -74.87          78.74         -102.2          76.24          118.4
     1.518              -42.68           20.2          76.54          64.65          4.272         -10.69         -75.35          79.21         -103.5          76.44          115.0
     1.551              -42.55           21.0          75.35          64.94          3.101         -11.14         -75.96           79.8         -105.1          76.69          110.6
     1.584              -42.39          21.98           73.9          65.29          1.673         -11.69         -76.69          80.52         -107.0           77.0          105.3
     1.617               -42.2          23.11          72.23          65.69        0.01913         -12.33         -77.54          81.36         -109.3          77.36          99.19
      1.65               -42.0          24.34          70.41          66.13         -1.772         -13.02         -78.46          82.27         -111.7          77.75          92.55
     1.683               -41.8          25.57           68.6          66.57         -3.564         -13.71         -79.39          83.18         -114.2          78.14           85.9
     1.716              -41.62           26.7          66.92          66.98         -5.218         -14.35         -80.24          84.01         -116.4           78.5          79.76
     1.749              -41.46          27.68          65.47          67.33         -6.645          -14.9         -80.97          84.74         -118.3          78.81          74.46
